<mxfile host="app.diagrams.net" agent="Mozilla/5.0 (Macintosh; Intel Mac OS X 10_15_7) AppleWebKit/537.36 (KHTML, like Gecko) Chrome/130.0.0.0 Safari/537.36" version="25.0.3">
  <diagram name="第 1 页" id="y4D9Tf6ymlBKxKTTLx2E">
    <mxGraphModel dx="2565" dy="1710" grid="1" gridSize="10" guides="1" tooltips="1" connect="1" arrows="1" fold="1" page="1" pageScale="1" pageWidth="3300" pageHeight="2339" math="0" shadow="0">
      <root>
        <mxCell id="0" />
        <mxCell id="1" parent="0" />
        <mxCell id="UHIflysu40mmN4eMS-2m-1" value="Actors" style="swimlane;fontSize=14;align=center;swimlaneFillColor=#f4f4f4;fillColor=#f4f4f4;startSize=33;container=1;pointerEvents=0;collapsible=0;recursiveResize=0;" vertex="1" parent="1">
          <mxGeometry x="30" y="251" width="210" height="177" as="geometry" />
        </mxCell>
        <mxCell id="UHIflysu40mmN4eMS-2m-2" value="User" style="outlineConnect=0;fontColor=#232F3E;gradientColor=none;fillColor=#232F3E;strokeColor=none;dashed=0;verticalLabelPosition=bottom;verticalAlign=top;align=center;html=1;fontSize=12;fontStyle=0;aspect=fixed;pointerEvents=1;shape=mxgraph.aws4.user;labelBackgroundColor=none;" vertex="1" parent="UHIflysu40mmN4eMS-2m-1">
          <mxGeometry x="16" y="54" width="78" height="78" as="geometry" />
        </mxCell>
        <mxCell id="UHIflysu40mmN4eMS-2m-3" value="Payers" style="outlineConnect=0;fontColor=#232F3E;gradientColor=none;fillColor=#232F3E;strokeColor=none;dashed=0;verticalLabelPosition=bottom;verticalAlign=top;align=center;html=1;fontSize=12;fontStyle=0;aspect=fixed;pointerEvents=1;shape=mxgraph.aws4.corporate_data_center;labelBackgroundColor=none;" vertex="1" parent="UHIflysu40mmN4eMS-2m-1">
          <mxGeometry x="130" y="54" width="53" height="78" as="geometry" />
        </mxCell>
        <mxCell id="UHIflysu40mmN4eMS-2m-4" value="Channels" style="swimlane;fontSize=14;align=center;swimlaneFillColor=#f4f4f4;fillColor=#f4f4f4;startSize=33;container=1;pointerEvents=0;collapsible=0;recursiveResize=0;" vertex="1" parent="1">
          <mxGeometry x="30" y="428" width="210" height="698" as="geometry" />
        </mxCell>
        <mxCell id="UHIflysu40mmN4eMS-2m-5" value="Mobile APP" style="outlineConnect=0;fontColor=#232F3E;gradientColor=none;strokeColor=none;fillColor=#277116;dashed=0;verticalLabelPosition=bottom;verticalAlign=top;align=center;html=1;fontSize=12;fontStyle=0;shape=mxgraph.aws4.mobile_client;labelBackgroundColor=none;" vertex="1" parent="UHIflysu40mmN4eMS-2m-4">
          <mxGeometry x="66.5" y="168" width="53" height="100" as="geometry" />
        </mxCell>
        <mxCell id="UHIflysu40mmN4eMS-2m-6" value="OPEN API" style="outlineConnect=0;fontColor=#232F3E;gradientColor=none;fillColor=#277116;strokeColor=none;dashed=0;verticalLabelPosition=bottom;verticalAlign=top;align=center;html=1;fontSize=12;fontStyle=0;aspect=fixed;pointerEvents=1;shape=mxgraph.aws4.external_sdk;labelBackgroundColor=none;" vertex="1" parent="UHIflysu40mmN4eMS-2m-4">
          <mxGeometry x="59" y="48" width="68" height="78" as="geometry" />
        </mxCell>
        <mxCell id="UHIflysu40mmN4eMS-2m-7" value="1" style="rounded=1;whiteSpace=wrap;html=1;fillColor=#007CBD;strokeColor=none;fontColor=#FFFFFF;fontStyle=1;fontSize=22;labelBackgroundColor=none;" vertex="1" parent="UHIflysu40mmN4eMS-2m-4">
          <mxGeometry x="4" y="48" width="40" height="38" as="geometry" />
        </mxCell>
        <mxCell id="UHIflysu40mmN4eMS-2m-8" value="" style="sketch=0;outlineConnect=0;fillColor=#008a00;strokeColor=#005700;dashed=0;verticalLabelPosition=bottom;verticalAlign=top;align=center;html=1;fontSize=12;fontStyle=0;aspect=fixed;pointerEvents=1;shape=mxgraph.aws4.globe;fontColor=#ffffff;" vertex="1" parent="UHIflysu40mmN4eMS-2m-4">
          <mxGeometry x="55" y="328" width="78" height="78" as="geometry" />
        </mxCell>
        <mxCell id="UHIflysu40mmN4eMS-2m-9" value="&lt;font style=&quot;font-size: 14px;&quot;&gt;Browser&lt;/font&gt;" style="text;html=1;align=center;verticalAlign=top;spacingTop=-4;fontSize=14;labelBackgroundColor=none;whiteSpace=wrap;" vertex="1" parent="UHIflysu40mmN4eMS-2m-4">
          <mxGeometry x="60" y="418" width="72" height="28.5" as="geometry" />
        </mxCell>
        <mxCell id="UHIflysu40mmN4eMS-2m-10" value="" style="sketch=0;outlineConnect=0;fillColor=#008a00;strokeColor=#005700;dashed=0;verticalLabelPosition=bottom;verticalAlign=top;align=center;html=1;fontSize=12;fontStyle=0;aspect=fixed;pointerEvents=1;shape=mxgraph.aws4.globe;fontColor=#ffffff;" vertex="1" parent="UHIflysu40mmN4eMS-2m-4">
          <mxGeometry x="49" y="582" width="78" height="78" as="geometry" />
        </mxCell>
        <mxCell id="UHIflysu40mmN4eMS-2m-11" value="&lt;font style=&quot;font-size: 14px;&quot;&gt;Browser Mkt&lt;/font&gt;" style="text;html=1;align=center;verticalAlign=top;spacingTop=-4;fontSize=14;labelBackgroundColor=none;whiteSpace=wrap;" vertex="1" parent="UHIflysu40mmN4eMS-2m-4">
          <mxGeometry x="39" y="661" width="110" height="28.5" as="geometry" />
        </mxCell>
        <UserObject label="&lt;span&gt;eb.ctbcbank.com&lt;/span&gt;" link="175.184.243.188(external) - 10.23.96.99(internal)" id="UHIflysu40mmN4eMS-2m-12">
          <mxCell style="text;html=1;align=center;verticalAlign=top;spacingTop=-4;fontSize=14;labelBackgroundColor=none;whiteSpace=wrap;" vertex="1" parent="UHIflysu40mmN4eMS-2m-4">
            <mxGeometry x="150" y="218" width="80.5" height="20" as="geometry" />
          </mxCell>
        </UserObject>
        <UserObject label="&lt;span&gt;www.ctbcbank.com&lt;/span&gt;" link="175.184.243.207(external) - 192.168.212.22(internal)" id="UHIflysu40mmN4eMS-2m-13">
          <mxCell style="text;html=1;align=center;verticalAlign=top;spacingTop=-4;fontSize=14;labelBackgroundColor=none;whiteSpace=wrap;" vertex="1" parent="UHIflysu40mmN4eMS-2m-4">
            <mxGeometry x="150" y="382" width="80.5" height="20" as="geometry" />
          </mxCell>
        </UserObject>
        <mxCell id="UHIflysu40mmN4eMS-2m-14" value="&lt;span&gt;mkt.ctbcbank.com&lt;/span&gt;" style="text;html=1;align=center;verticalAlign=top;spacingTop=-4;fontSize=14;labelBackgroundColor=none;whiteSpace=wrap;" vertex="1" parent="UHIflysu40mmN4eMS-2m-4">
          <mxGeometry x="147" y="631" width="80.5" height="20" as="geometry" />
        </mxCell>
        <mxCell id="UHIflysu40mmN4eMS-2m-15" value="" style="sketch=0;outlineConnect=0;fillColor=#008a00;strokeColor=#005700;dashed=0;verticalLabelPosition=bottom;verticalAlign=top;align=center;html=1;fontSize=12;fontStyle=0;aspect=fixed;pointerEvents=1;shape=mxgraph.aws4.globe;fontColor=#ffffff;" vertex="1" parent="UHIflysu40mmN4eMS-2m-4">
          <mxGeometry x="54" y="468" width="78" height="78" as="geometry" />
        </mxCell>
        <mxCell id="UHIflysu40mmN4eMS-2m-16" value="&lt;font style=&quot;font-size: 14px;&quot;&gt;Browser accessibility&lt;/font&gt;" style="text;html=1;align=center;verticalAlign=top;spacingTop=-4;fontSize=14;labelBackgroundColor=none;whiteSpace=wrap;" vertex="1" parent="UHIflysu40mmN4eMS-2m-4">
          <mxGeometry x="18.5" y="553.5" width="151" height="28.5" as="geometry" />
        </mxCell>
        <UserObject label="accessibility&lt;span&gt;.ctbcbank.com&lt;/span&gt;" link="175.184.240.216(external) - 10.23.69.89(internal)" id="UHIflysu40mmN4eMS-2m-17">
          <mxCell style="text;html=1;align=center;verticalAlign=top;spacingTop=-4;fontSize=14;labelBackgroundColor=none;whiteSpace=wrap;" vertex="1" parent="UHIflysu40mmN4eMS-2m-4">
            <mxGeometry x="172" y="470" width="80.5" height="20" as="geometry" />
          </mxCell>
        </UserObject>
        <UserObject label="&lt;span&gt;ctbc.tw&lt;/span&gt;" link="175.184.243.186(external)  -  10.23.96.95(internal)" linkTarget="_blank" id="UHIflysu40mmN4eMS-2m-18">
          <mxCell style="text;html=1;align=center;verticalAlign=top;spacingTop=-4;fontSize=14;labelBackgroundColor=none;whiteSpace=wrap;" vertex="1" parent="1">
            <mxGeometry x="180" y="514" width="80.5" height="20" as="geometry" />
          </mxCell>
        </UserObject>
        <mxCell id="UHIflysu40mmN4eMS-2m-20" value="&lt;font style=&quot;font-size: 36px;&quot;&gt;Internet&lt;/font&gt;" style="sketch=0;outlineConnect=0;gradientColor=none;html=1;whiteSpace=wrap;fontSize=12;fontStyle=0;shape=mxgraph.aws4.group;grIcon=mxgraph.aws4.group_vpc;strokeColor=#879196;fillColor=none;verticalAlign=top;align=left;spacingLeft=30;fontColor=#879196;dashed=0;" vertex="1" parent="1">
          <mxGeometry x="15.25" y="20" width="354.75" height="2290" as="geometry" />
        </mxCell>
      </root>
    </mxGraphModel>
  </diagram>
</mxfile>
